<?xml version="1.0" encoding="utf-8"?>
<svg xmlns="http://www.w3.org/2000/svg" viewBox="0 0 1440 320" preserveAspectRatio="none">
  <defs>
    <linearGradient id="waveGradient" x1="0%" y1="0%" x2="100%" y2="0%">
      <stop offset="0%" stop-color="#4cacaf"/>
      <stop offset="40%" stop-color="#e96443"/>
      <stop offset="70%" stop-color="#c94b4b"/>
      <stop offset="100%" stop-color="#31454e"/>
    </linearGradient>
  </defs>
  <path fill="url(#waveGradient)" d="M -0.001 160.002 L 240.1 161.652 C 358.74 164.807 717.031 290.623 720.51 539.476 C 720.597 545.694 725.975 551.681 728.924 557.415 C 742.54 583.884 778.625 604.969 804.081 618.611 C 840.828 638.303 890.167 647.358 940.355 650.051 C 975.422 651.932 1005.94 650.139 1053.92 649.105 C 1243.99 645.009 1441.49 589.478 1441.49 589.478 L 1440 0.002 L 1320 0.002 C 1200 0.002 959.999 0.002 719.999 0.002 C 479.999 0.002 239.999 0.002 119.999 0.002 L -0.001 0.002 L -0.001 160.002 Z" style=""/>
</svg>